<?xml version="1.0" encoding="utf-8"?>
<!-- Generator: Adobe Illustrator 19.2.0, SVG Export Plug-In . SVG Version: 6.00 Build 0)  -->
<svg version="1.2" baseProfile="tiny" id="Layer_1" xmlns="http://www.w3.org/2000/svg" xmlns:xlink="http://www.w3.org/1999/xlink"
	 x="0px" y="0px" viewBox="0 0 46 45" xml:space="preserve">
<g id="Group">
	<path id="Rectangle-5" d="M0,0h46v18.9V45H0V0z"/>
</g>
<rect x="4.6" y="5.2" fill="none" width="27.2" height="21.4"/>
<g>
	<path fill="#FFFFFF" d="M30.9,17.3c0,2-0.3,3.8-1,5.4c-0.6,1.5-1.5,2.8-2.6,3.9c-4.1,4-10.2,4.2-11.5,4.2H6.5v-27h9
		c0.7,0,7.3-0.1,11.7,4.1c1.1,1.1,2.1,2.4,2.7,3.9C30.5,13.4,30.9,15.2,30.9,17.3z M26.7,17.3c0-1.5-0.2-2.8-0.7-3.9
		c-0.4-1-1-1.8-1.7-2.5c-1.7-1.6-3.9-2.3-5.5-2.6C17,8,15.7,8,15.6,8h-4.1v18.7h4.1c0.2,0,5.5,0.1,8.7-3c0.7-0.7,1.3-1.6,1.7-2.5
		C26.5,20,26.7,18.7,26.7,17.3z"/>
</g>
<rect x="25.6" y="20.5" fill="none" width="16.7" height="20.6"/>
<g>
	<path fill="#FFFFFF" d="M27.7,29.8c1.2-1.2,2.7-1.8,4.4-1.8c1.2,0,2.4,0.4,3.4,1c0.6,0.4,1.1,0.9,1.5,1.4V23h2.2v17H37v-2.1
		c-1.1,1.5-2.9,2.4-4.9,2.4c-1.9,0-3.5-0.8-4.7-2.1c-0.9-1.1-1.5-2.5-1.5-4C25.9,32.5,26.6,31,27.7,29.8z M32.6,38.7
		c2.4,0,4.5-2.1,4.5-4.6s-2-4.6-4.5-4.6s-4.5,2-4.5,4.6S30.1,38.7,32.6,38.7z"/>
</g>
</svg>
