<?xml version="1.0" encoding="utf-8"?>
<!-- Generator: Adobe Illustrator 19.2.0, SVG Export Plug-In . SVG Version: 6.00 Build 0)  -->
<svg version="1.2" baseProfile="tiny" id="Layer_1" xmlns="http://www.w3.org/2000/svg" xmlns:xlink="http://www.w3.org/1999/xlink"
	 x="0px" y="0px" viewBox="0 0 46 45" xml:space="preserve">
<g id="Group">
	<path id="Rectangle-5" fill="none" stroke="#000000" stroke-width="4" stroke-miterlimit="10" d="M0,0h46v18.9V45H0V0z"/>
</g>
<rect x="4.6" y="5.2" fill="none" width="27.2" height="21.4"/>
<rect x="25.6" y="20.5" fill="none" width="16.7" height="20.6"/>
<g>
	<path d="M33.1,34.6v0.3H25v-2.7c-0.8,2.1-2.2,3.5-4.2,3.5c-4.3,0-7.7-3.7-7.7-9.7S17,16,20.9,16c1.7,0,3.4,0.9,4.2,3V7.5h-3.1V7.3
		H30v27.4H33.1z M25,31.5V19.9c-0.5-2.1-2.1-3.5-3.5-3.5c-2.4,0-3.4,2.5-3.4,9.5c0,7,0.9,9.4,3.3,9.4C23.1,35.3,24.4,33.6,25,31.5z"
		/>
</g>
</svg>
