<svg xmlns="http://www.w3.org/2000/svg" viewBox="0 0 160 160"><defs><style>.cls-1{fill:#1a1a1a;}</style></defs><title>dd_logo2</title><g id="Layer_2" data-name="Layer 2"><g id="Layer_1-2" data-name="Layer 1"><path class="cls-1" d="M111.68,150.46a34,34,0,0,1-10.37-25V48.93a7.81,7.81,0,0,1,2.29-5.61A7.91,7.91,0,0,1,109.3,41a7.83,7.83,0,0,1,7.9,7.9v76.55a18.75,18.75,0,0,0,5.69,13.76,19.35,19.35,0,0,0,5.93,4.1A80,80,0,0,0,85.51.21,7.68,7.68,0,0,1,88.22,2,7.68,7.68,0,0,1,90.6,7.59V111.84a7.77,7.77,0,0,1-2.38,5.69,7.63,7.63,0,0,1-5.61,2.29q-6.2,0-7.65-6a34.43,34.43,0,0,1-19.71,6h-.59a34,34,0,0,1-25-10.37,34,34,0,0,1-10.37-25V68.26a34,34,0,0,1,10.37-25,34,34,0,0,1,25-10.37h.59a34.72,34.72,0,0,1,19.46,5.86V7.59A7.81,7.81,0,0,1,77,2a7.59,7.59,0,0,1,3.3-2H80a80,80,0,1,0,33.87,152.48C113.13,151.84,112.4,151.17,111.68,150.46Z"/><path class="cls-1" d="M54.66,48.8A19.44,19.44,0,0,0,35.21,68.26V84.48a19.44,19.44,0,0,0,19.46,19.46h.59a18.65,18.65,0,0,0,13.68-5.69,18.61,18.61,0,0,0,5.78-13.76V68.26a18.61,18.61,0,0,0-5.78-13.76A18.66,18.66,0,0,0,55.26,48.8Z"/></g></g></svg>