<?xml version="1.0" encoding="utf-8"?>
<!-- Generator: Adobe Illustrator 19.2.0, SVG Export Plug-In . SVG Version: 6.00 Build 0)  -->
<svg version="1.2" baseProfile="tiny" id="Layer_1" xmlns="http://www.w3.org/2000/svg" xmlns:xlink="http://www.w3.org/1999/xlink"
	 x="0px" y="0px" viewBox="0 0 46 45" xml:space="preserve">
<g id="Group">
	<path id="Rectangle-5" fill="none" stroke="#000000" stroke-width="2" stroke-miterlimit="10" d="M0,0h46v18.9V45H0V0z"/>
</g>
<rect x="4.6" y="5.2" fill="none" width="27.2" height="21.4"/>
<rect x="25.6" y="20.5" fill="none" width="16.7" height="20.6"/>
<g>
	<path d="M35.8,38.6v0.3h-9.9v-3.3c-0.9,2.6-2.6,4.3-5.1,4.3c-5.3,0-9.4-4.5-9.4-11.9c0-7.4,4.7-12.1,9.5-12.1
		c2.1,0,4.2,1.1,5.1,3.6V5.4h-3.8V5.1H32v33.5H35.8z M25.9,34.7V20.6c-0.6-2.6-2.5-4.3-4.3-4.3c-2.9,0-4.2,3-4.2,11.7
		c0,8.6,1.1,11.4,4,11.4C23.5,39.4,25.2,37.4,25.9,34.7z"/>
</g>
</svg>
