<svg xmlns="http://www.w3.org/2000/svg" viewBox="0 0 300 300"><defs><style>.cls-1{fill:#fff;}.cls-2{fill:#1a1a1a;}</style></defs><title>Asset 2</title><g id="Layer_2" data-name="Layer 2"><g id="Layer_1-2" data-name="Layer 1"><path class="cls-1" d="M143.78,221.86c0,38.72,18,64.35,45.27,64.35,16.91,0,34.36-7.09,45.27-18.54V173.87C223.41,164.05,206,158.05,189,158.05,161.78,158.05,143.78,183.69,143.78,221.86Z"/><path class="cls-1" d="M178.14,95.88c18.54,0,38.72,6.54,56.17,18V0H0V300H85.54c-14.07-20.59-21.93-47.21-21.93-78.14C63.61,147.69,109.42,95.88,178.14,95.88Z"/><path class="cls-2" d="M300,0H234.32V113.88c-17.45-11.45-37.63-18-56.17-18-68.72,0-114.53,51.81-114.53,126,0,30.93,7.85,57.55,21.93,78.14H300ZM234.32,267.67C223.41,279.13,206,286.22,189,286.22c-27.27,0-45.27-25.63-45.27-64.35,0-38.18,18-63.81,45.27-63.81,16.91,0,34.36,6,45.27,15.82Z"/></g></g></svg>